solid OpenSCAD_Model
  facet normal -1 0 0
    outer loop
      vertex -2 -2 -2
      vertex -2 -2 0
      vertex -2 142.9 -2
    endloop
  endfacet
  facet normal -1 0 0
    outer loop
      vertex -2 142.9 -2
      vertex -2 -2 0
      vertex -2 142.9 0
    endloop
  endfacet
  facet normal 0 -1 0
    outer loop
      vertex -2 -2 0
      vertex -2 -2 -2
      vertex 84 -2 -2
    endloop
  endfacet
  facet normal 0 -1 0
    outer loop
      vertex 84 -2 0
      vertex -2 -2 0
      vertex 84 -2 -2
    endloop
  endfacet
  facet normal 0 0 -1
    outer loop
      vertex 61.1 103.9 -2
      vertex 84 -2 -2
      vertex 75.5 13 -2
    endloop
  endfacet
  facet normal 0 0 -1
    outer loop
      vertex 18 115.9 -2
      vertex -2 142.9 -2
      vertex 84 142.9 -2
    endloop
  endfacet
  facet normal 0 0 -1
    outer loop
      vertex -2 -2 -2
      vertex -2 142.9 -2
      vertex 7.5 13 -2
    endloop
  endfacet
  facet normal 0 0 -1
    outer loop
      vertex -2 -2 -2
      vertex 7.5 13 -2
      vertex 7.5 3 -2
    endloop
  endfacet
  facet normal 0 0 -1
    outer loop
      vertex -2 -2 -2
      vertex 7.5 3 -2
      vertex 84 -2 -2
    endloop
  endfacet
  facet normal 0 0 -1
    outer loop
      vertex 7.5 3 -2
      vertex 10.5 3 -2
      vertex 84 -2 -2
    endloop
  endfacet
  facet normal 0 0 -1
    outer loop
      vertex 7.5 13 -2
      vertex -2 142.9 -2
      vertex 10.5 13 -2
    endloop
  endfacet
  facet normal 0 0 -1
    outer loop
      vertex 10.5 13 -2
      vertex -2 142.9 -2
      vertex 14 13 -2
    endloop
  endfacet
  facet normal 0 0 -1
    outer loop
      vertex 10.5 3 -2
      vertex 14 3 -2
      vertex 84 -2 -2
    endloop
  endfacet
  facet normal 0 0 -1
    outer loop
      vertex 14 3 -2
      vertex 17 3 -2
      vertex 84 -2 -2
    endloop
  endfacet
  facet normal 0 0 -1
    outer loop
      vertex 14 13 -2
      vertex -2 142.9 -2
      vertex 17 13 -2
    endloop
  endfacet
  facet normal 0 0 -1
    outer loop
      vertex 18 103.9 -2
      vertex -2 142.9 -2
      vertex 18 115.9 -2
    endloop
  endfacet
  facet normal 0 0 -1
    outer loop
      vertex 61.1 115.9 -2
      vertex 18 115.9 -2
      vertex 84 142.9 -2
    endloop
  endfacet
  facet normal 0 0 -1
    outer loop
      vertex 17 13 -2
      vertex -2 142.9 -2
      vertex 18 103.9 -2
    endloop
  endfacet
  facet normal 0 0 -1
    outer loop
      vertex 72.5 3 -2
      vertex 69 13 -2
      vertex 72.5 13 -2
    endloop
  endfacet
  facet normal 0 0 -1
    outer loop
      vertex 20.5 3 -2
      vertex 17 13 -2
      vertex 20.5 13 -2
    endloop
  endfacet
  facet normal 0 0 -1
    outer loop
      vertex 84 -2 -2
      vertex 61.1 103.9 -2
      vertex 84 142.9 -2
    endloop
  endfacet
  facet normal 0 0 -1
    outer loop
      vertex 61.1 103.9 -2
      vertex 61.1 115.9 -2
      vertex 84 142.9 -2
    endloop
  endfacet
  facet normal 0 0 -1
    outer loop
      vertex 17 13 -2
      vertex 18 103.9 -2
      vertex 20.5 13 -2
    endloop
  endfacet
  facet normal 0 0 -1
    outer loop
      vertex 17 3 -2
      vertex 20.5 3 -2
      vertex 84 -2 -2
    endloop
  endfacet
  facet normal 0 0 -1
    outer loop
      vertex 20.5 3 -2
      vertex 23.5 3 -2
      vertex 84 -2 -2
    endloop
  endfacet
  facet normal 0 0 -1
    outer loop
      vertex 20.5 13 -2
      vertex 18 103.9 -2
      vertex 23.5 13 -2
    endloop
  endfacet
  facet normal 0 0 -1
    outer loop
      vertex 27 3 -2
      vertex 23.5 13 -2
      vertex 27 13 -2
    endloop
  endfacet
  facet normal 0 0 -1
    outer loop
      vertex 23.5 13 -2
      vertex 18 103.9 -2
      vertex 27 13 -2
    endloop
  endfacet
  facet normal 0 0 -1
    outer loop
      vertex 23.5 3 -2
      vertex 27 3 -2
      vertex 84 -2 -2
    endloop
  endfacet
  facet normal 0 0 -1
    outer loop
      vertex 27 3 -2
      vertex 30 3 -2
      vertex 84 -2 -2
    endloop
  endfacet
  facet normal 0 0 -1
    outer loop
      vertex 27 13 -2
      vertex 18 103.9 -2
      vertex 30 13 -2
    endloop
  endfacet
  facet normal 0 0 -1
    outer loop
      vertex 69 3 -2
      vertex 84 -2 -2
      vertex 66 3 -2
    endloop
  endfacet
  facet normal 0 0 -1
    outer loop
      vertex 30 13 -2
      vertex 18 103.9 -2
      vertex 33.5 13 -2
    endloop
  endfacet
  facet normal 0 0 -1
    outer loop
      vertex 30 3 -2
      vertex 33.5 3 -2
      vertex 84 -2 -2
    endloop
  endfacet
  facet normal 0 0 -1
    outer loop
      vertex 33.5 3 -2
      vertex 36.5 3 -2
      vertex 84 -2 -2
    endloop
  endfacet
  facet normal 0 0 -1
    outer loop
      vertex 33.5 13 -2
      vertex 18 103.9 -2
      vertex 36.5 13 -2
    endloop
  endfacet
  facet normal 0 0 -1
    outer loop
      vertex 40 3 -2
      vertex 36.5 13 -2
      vertex 40 13 -2
    endloop
  endfacet
  facet normal 0 0 -1
    outer loop
      vertex 36.5 13 -2
      vertex 18 103.9 -2
      vertex 40 13 -2
    endloop
  endfacet
  facet normal 0 0 -1
    outer loop
      vertex 36.5 3 -2
      vertex 40 3 -2
      vertex 84 -2 -2
    endloop
  endfacet
  facet normal 0 0 -1
    outer loop
      vertex 40 3 -2
      vertex 43 3 -2
      vertex 84 -2 -2
    endloop
  endfacet
  facet normal 0 0 -1
    outer loop
      vertex 40 13 -2
      vertex 18 103.9 -2
      vertex 43 13 -2
    endloop
  endfacet
  facet normal 0 0 -1
    outer loop
      vertex 46.5 3 -2
      vertex 43 13 -2
      vertex 46.5 13 -2
    endloop
  endfacet
  facet normal 0 0 -1
    outer loop
      vertex 43 13 -2
      vertex 18 103.9 -2
      vertex 46.5 13 -2
    endloop
  endfacet
  facet normal 0 0 -1
    outer loop
      vertex 43 3 -2
      vertex 46.5 3 -2
      vertex 84 -2 -2
    endloop
  endfacet
  facet normal 0 0 -1
    outer loop
      vertex 46.5 3 -2
      vertex 49.5 3 -2
      vertex 84 -2 -2
    endloop
  endfacet
  facet normal 0 0 -1
    outer loop
      vertex 46.5 13 -2
      vertex 18 103.9 -2
      vertex 49.5 13 -2
    endloop
  endfacet
  facet normal 0 0 -1
    outer loop
      vertex 49.5 13 -2
      vertex 18 103.9 -2
      vertex 53 13 -2
    endloop
  endfacet
  facet normal 0 0 -1
    outer loop
      vertex 75.5 3 -2
      vertex 84 -2 -2
      vertex 72.5 3 -2
    endloop
  endfacet
  facet normal 0 0 -1
    outer loop
      vertex 49.5 3 -2
      vertex 53 3 -2
      vertex 84 -2 -2
    endloop
  endfacet
  facet normal 0 0 -1
    outer loop
      vertex 53 3 -2
      vertex 56 3 -2
      vertex 84 -2 -2
    endloop
  endfacet
  facet normal 0 0 -1
    outer loop
      vertex 53 13 -2
      vertex 18 103.9 -2
      vertex 56 13 -2
    endloop
  endfacet
  facet normal 0 0 -1
    outer loop
      vertex 59.5 3 -2
      vertex 56 13 -2
      vertex 59.5 13 -2
    endloop
  endfacet
  facet normal 0 0 -1
    outer loop
      vertex 56 13 -2
      vertex 18 103.9 -2
      vertex 59.5 13 -2
    endloop
  endfacet
  facet normal 0 0 -1
    outer loop
      vertex 14 3 -2
      vertex 10.5 13 -2
      vertex 14 13 -2
    endloop
  endfacet
  facet normal 0 0 -1
    outer loop
      vertex 59.5 13 -2
      vertex 18 103.9 -2
      vertex 62.5 13 -2
    endloop
  endfacet
  facet normal 0 0 -1
    outer loop
      vertex 66 3 -2
      vertex 62.5 13 -2
      vertex 66 13 -2
    endloop
  endfacet
  facet normal 0 0 -1
    outer loop
      vertex 62.5 13 -2
      vertex 18 103.9 -2
      vertex 66 13 -2
    endloop
  endfacet
  facet normal 0 0 -1
    outer loop
      vertex 33.5 3 -2
      vertex 30 13 -2
      vertex 33.5 13 -2
    endloop
  endfacet
  facet normal 0 0 -1
    outer loop
      vertex 66 13 -2
      vertex 18 103.9 -2
      vertex 69 13 -2
    endloop
  endfacet
  facet normal 0 0 -1
    outer loop
      vertex 72.5 13 -2
      vertex 18 103.9 -2
      vertex 75.5 13 -2
    endloop
  endfacet
  facet normal 0 0 -1
    outer loop
      vertex 69 13 -2
      vertex 18 103.9 -2
      vertex 72.5 13 -2
    endloop
  endfacet
  facet normal 0 0 -1
    outer loop
      vertex 53 3 -2
      vertex 49.5 13 -2
      vertex 53 13 -2
    endloop
  endfacet
  facet normal 0 0 -1
    outer loop
      vertex 61.1 103.9 -2
      vertex 75.5 13 -2
      vertex 18 103.9 -2
    endloop
  endfacet
  facet normal 0 0 -1
    outer loop
      vertex 62.5 3 -2
      vertex 84 -2 -2
      vertex 59.5 3 -2
    endloop
  endfacet
  facet normal 0 0 -1
    outer loop
      vertex 59.5 3 -2
      vertex 84 -2 -2
      vertex 56 3 -2
    endloop
  endfacet
  facet normal 0 0 -1
    outer loop
      vertex 17 13 -2
      vertex 20.5 3 -2
      vertex 17 3 -2
    endloop
  endfacet
  facet normal 0 0 -1
    outer loop
      vertex 30 13 -2
      vertex 33.5 3 -2
      vertex 30 3 -2
    endloop
  endfacet
  facet normal 0 0 -1
    outer loop
      vertex 43 13 -2
      vertex 46.5 3 -2
      vertex 43 3 -2
    endloop
  endfacet
  facet normal 0 0 -1
    outer loop
      vertex 72.5 3 -2
      vertex 84 -2 -2
      vertex 69 3 -2
    endloop
  endfacet
  facet normal 0 0 -1
    outer loop
      vertex 56 13 -2
      vertex 59.5 3 -2
      vertex 56 3 -2
    endloop
  endfacet
  facet normal 0 0 -1
    outer loop
      vertex 69 13 -2
      vertex 72.5 3 -2
      vertex 69 3 -2
    endloop
  endfacet
  facet normal 0 0 -1
    outer loop
      vertex 75.5 13 -2
      vertex 84 -2 -2
      vertex 75.5 3 -2
    endloop
  endfacet
  facet normal 0 0 -1
    outer loop
      vertex 62.5 13 -2
      vertex 66 3 -2
      vertex 62.5 3 -2
    endloop
  endfacet
  facet normal 0 0 -1
    outer loop
      vertex 49.5 13 -2
      vertex 53 3 -2
      vertex 49.5 3 -2
    endloop
  endfacet
  facet normal 0 0 -1
    outer loop
      vertex 36.5 13 -2
      vertex 40 3 -2
      vertex 36.5 3 -2
    endloop
  endfacet
  facet normal 0 0 -1
    outer loop
      vertex 66 3 -2
      vertex 84 -2 -2
      vertex 62.5 3 -2
    endloop
  endfacet
  facet normal 0 0 -1
    outer loop
      vertex 23.5 13 -2
      vertex 27 3 -2
      vertex 23.5 3 -2
    endloop
  endfacet
  facet normal 0 0 -1
    outer loop
      vertex 10.5 13 -2
      vertex 14 3 -2
      vertex 10.5 3 -2
    endloop
  endfacet
  facet normal 0 1 0
    outer loop
      vertex -2 142.9 -2
      vertex -2 142.9 0
      vertex 84 142.9 -2
    endloop
  endfacet
  facet normal 0 1 0
    outer loop
      vertex 84 142.9 -2
      vertex -2 142.9 0
      vertex 84 142.9 0
    endloop
  endfacet
  facet normal 0 0 1
    outer loop
      vertex 6 0 0
      vertex -2 -2 0
      vertex 84 -2 0
    endloop
  endfacet
  facet normal 0 0 1
    outer loop
      vertex 6 2 0
      vertex 49.5 3 0
      vertex 46.5 3 0
    endloop
  endfacet
  facet normal 0 0 1
    outer loop
      vertex -2 142.9 0
      vertex -2 -2 0
      vertex 0 10 0
    endloop
  endfacet
  facet normal 0 0 1
    outer loop
      vertex 14 3 0
      vertex 14 13 0
      vertex 10.5 13 0
    endloop
  endfacet
  facet normal 0 0 1
    outer loop
      vertex -2 142.9 0
      vertex 0 10 0
      vertex 0 122.9 0
    endloop
  endfacet
  facet normal 0 0 1
    outer loop
      vertex 75.5 13 0
      vertex 75.5 3 0
      vertex 76 2 0
    endloop
  endfacet
  facet normal 0 0 1
    outer loop
      vertex 6 2 0
      vertex 56 3 0
      vertex 53 3 0
    endloop
  endfacet
  facet normal 0 0 1
    outer loop
      vertex -2 142.9 0
      vertex 0 122.9 0
      vertex 0 130.9 0
    endloop
  endfacet
  facet normal 0 0 1
    outer loop
      vertex 75.5 13 0
      vertex 76 2 0
      vertex 77 10 0
    endloop
  endfacet
  facet normal 0 0 1
    outer loop
      vertex 76 2 0
      vertex 76 0 0
      vertex 84 -2 0
    endloop
  endfacet
  facet normal 0 0 1
    outer loop
      vertex 0 10 0
      vertex -2 -2 0
      vertex 6 0 0
    endloop
  endfacet
  facet normal 0 0 1
    outer loop
      vertex 0 10 0
      vertex 6 0 0
      vertex 6 2 0
    endloop
  endfacet
  facet normal 0 0 1
    outer loop
      vertex 77 18 0
      vertex 80 18 0
      vertex 61.1 103.9 0
    endloop
  endfacet
  facet normal 0 0 1
    outer loop
      vertex 0 10 0
      vertex 6 2 0
      vertex 7.5 3 0
    endloop
  endfacet
  facet normal 0 0 1
    outer loop
      vertex 27 13 0
      vertex 30 13 0
      vertex 5 18 0
    endloop
  endfacet
  facet normal 0 0 1
    outer loop
      vertex 0 130.9 0
      vertex 5 130.9 0
      vertex -2 142.9 0
    endloop
  endfacet
  facet normal 0 0 1
    outer loop
      vertex 6 2 0
      vertex 10.5 3 0
      vertex 7.5 3 0
    endloop
  endfacet
  facet normal 0 0 1
    outer loop
      vertex 10.5 13 0
      vertex 10.5 3 0
      vertex 14 3 0
    endloop
  endfacet
  facet normal 0 0 1
    outer loop
      vertex 6 2 0
      vertex 14 3 0
      vertex 10.5 3 0
    endloop
  endfacet
  facet normal 0 0 1
    outer loop
      vertex 72.5 3 0
      vertex 69 3 0
      vertex 76 2 0
    endloop
  endfacet
  facet normal 0 0 1
    outer loop
      vertex 6 2 0
      vertex 66 3 0
      vertex 62.5 3 0
    endloop
  endfacet
  facet normal 0 0 1
    outer loop
      vertex 5 122.9 0
      vertex 0 122.9 0
      vertex 2 122.9 0
    endloop
  endfacet
  facet normal 0 0 1
    outer loop
      vertex 6 2 0
      vertex 17 3 0
      vertex 14 3 0
    endloop
  endfacet
  facet normal 0 0 1
    outer loop
      vertex 17 13 0
      vertex 17 3 0
      vertex 20.5 3 0
    endloop
  endfacet
  facet normal 0 0 1
    outer loop
      vertex 23.5 13 0
      vertex 27 13 0
      vertex 5 18 0
    endloop
  endfacet
  facet normal 0 0 1
    outer loop
      vertex 5 130.9 0
      vertex 5 122.9 0
      vertex 18 103.9 0
    endloop
  endfacet
  facet normal 0 0 1
    outer loop
      vertex 84 142.9 0
      vertex -2 142.9 0
      vertex 18 115.9 0
    endloop
  endfacet
  facet normal 0 0 1
    outer loop
      vertex 84 142.9 0
      vertex 18 115.9 0
      vertex 61.1 115.9 0
    endloop
  endfacet
  facet normal 0 0 1
    outer loop
      vertex 6 2 0
      vertex 20.5 3 0
      vertex 17 3 0
    endloop
  endfacet
  facet normal 0 0 1
    outer loop
      vertex 30 13 0
      vertex 30 3 0
      vertex 33.5 3 0
    endloop
  endfacet
  facet normal 0 0 1
    outer loop
      vertex 61.1 103.9 0
      vertex 75.5 13 0
      vertex 77 18 0
    endloop
  endfacet
  facet normal 0 0 1
    outer loop
      vertex 6 2 0
      vertex 23.5 3 0
      vertex 20.5 3 0
    endloop
  endfacet
  facet normal 0 0 1
    outer loop
      vertex 23.5 13 0
      vertex 23.5 3 0
      vertex 27 3 0
    endloop
  endfacet
  facet normal 0 0 1
    outer loop
      vertex 6 2 0
      vertex 27 3 0
      vertex 23.5 3 0
    endloop
  endfacet
  facet normal 0 0 1
    outer loop
      vertex 18 103.9 0
      vertex 18 115.9 0
      vertex 5 130.9 0
    endloop
  endfacet
  facet normal 0 0 1
    outer loop
      vertex 69 13 0
      vertex 69 3 0
      vertex 72.5 3 0
    endloop
  endfacet
  facet normal 0 0 1
    outer loop
      vertex 6 2 0
      vertex 30 3 0
      vertex 27 3 0
    endloop
  endfacet
  facet normal 0 0 1
    outer loop
      vertex 36.5 13 0
      vertex 36.5 3 0
      vertex 40 3 0
    endloop
  endfacet
  facet normal 0 0 1
    outer loop
      vertex 6 2 0
      vertex 33.5 3 0
      vertex 30 3 0
    endloop
  endfacet
  facet normal 0 0 1
    outer loop
      vertex 40 3 0
      vertex 40 13 0
      vertex 36.5 13 0
    endloop
  endfacet
  facet normal 0 0 1
    outer loop
      vertex 5 18 0
      vertex 20.5 13 0
      vertex 23.5 13 0
    endloop
  endfacet
  facet normal 0 0 1
    outer loop
      vertex 6 2 0
      vertex 36.5 3 0
      vertex 33.5 3 0
    endloop
  endfacet
  facet normal 0 0 1
    outer loop
      vertex 43 13 0
      vertex 43 3 0
      vertex 46.5 3 0
    endloop
  endfacet
  facet normal 0 0 1
    outer loop
      vertex 6 2 0
      vertex 40 3 0
      vertex 36.5 3 0
    endloop
  endfacet
  facet normal 0 0 1
    outer loop
      vertex 5 18 0
      vertex 17 13 0
      vertex 20.5 13 0
    endloop
  endfacet
  facet normal 0 0 1
    outer loop
      vertex 5 18 0
      vertex 14 13 0
      vertex 17 13 0
    endloop
  endfacet
  facet normal 0 0 1
    outer loop
      vertex 6 2 0
      vertex 43 3 0
      vertex 40 3 0
    endloop
  endfacet
  facet normal 0 0 1
    outer loop
      vertex 49.5 13 0
      vertex 49.5 3 0
      vertex 53 3 0
    endloop
  endfacet
  facet normal 0 0 1
    outer loop
      vertex 6 2 0
      vertex 46.5 3 0
      vertex 43 3 0
    endloop
  endfacet
  facet normal 0 0 1
    outer loop
      vertex 5 18 0
      vertex 10.5 13 0
      vertex 14 13 0
    endloop
  endfacet
  facet normal 0 0 1
    outer loop
      vertex 5 18 0
      vertex 7.5 13 0
      vertex 10.5 13 0
    endloop
  endfacet
  facet normal 0 0 1
    outer loop
      vertex 6 2 0
      vertex 53 3 0
      vertex 49.5 3 0
    endloop
  endfacet
  facet normal 0 0 1
    outer loop
      vertex 82 10 0
      vertex 77 10 0
      vertex 84 -2 0
    endloop
  endfacet
  facet normal 0 0 1
    outer loop
      vertex 6 2 0
      vertex 59.5 3 0
      vertex 56 3 0
    endloop
  endfacet
  facet normal 0 0 1
    outer loop
      vertex 5 18 0
      vertex 5 10 0
      vertex 7.5 13 0
    endloop
  endfacet
  facet normal 0 0 1
    outer loop
      vertex 7.5 3 0
      vertex 7.5 13 0
      vertex 5 10 0
    endloop
  endfacet
  facet normal 0 0 1
    outer loop
      vertex 6 2 0
      vertex 62.5 3 0
      vertex 59.5 3 0
    endloop
  endfacet
  facet normal 0 0 1
    outer loop
      vertex 72.5 13 0
      vertex 75.5 13 0
      vertex 18 103.9 0
    endloop
  endfacet
  facet normal 0 0 1
    outer loop
      vertex 7.5 3 0
      vertex 5 10 0
      vertex 0 10 0
    endloop
  endfacet
  facet normal 0 0 1
    outer loop
      vertex 6 2 0
      vertex 76 2 0
      vertex 66 3 0
    endloop
  endfacet
  facet normal 0 0 1
    outer loop
      vertex 5 130.9 0
      vertex 18 115.9 0
      vertex -2 142.9 0
    endloop
  endfacet
  facet normal 0 0 1
    outer loop
      vertex 75.5 3 0
      vertex 72.5 3 0
      vertex 76 2 0
    endloop
  endfacet
  facet normal 0 0 1
    outer loop
      vertex 56 13 0
      vertex 56 3 0
      vertex 59.5 3 0
    endloop
  endfacet
  facet normal 0 0 1
    outer loop
      vertex 76 2 0
      vertex 69 3 0
      vertex 66 3 0
    endloop
  endfacet
  facet normal 0 0 1
    outer loop
      vertex 33.5 3 0
      vertex 33.5 13 0
      vertex 30 13 0
    endloop
  endfacet
  facet normal 0 0 1
    outer loop
      vertex 46.5 3 0
      vertex 46.5 13 0
      vertex 43 13 0
    endloop
  endfacet
  facet normal 0 0 1
    outer loop
      vertex 77 10 0
      vertex 77 18 0
      vertex 75.5 13 0
    endloop
  endfacet
  facet normal 0 0 1
    outer loop
      vertex 66 3 0
      vertex 66 13 0
      vertex 62.5 13 0
    endloop
  endfacet
  facet normal 0 0 1
    outer loop
      vertex 59.5 3 0
      vertex 59.5 13 0
      vertex 56 13 0
    endloop
  endfacet
  facet normal 0 0 1
    outer loop
      vertex 62.5 13 0
      vertex 62.5 3 0
      vertex 66 3 0
    endloop
  endfacet
  facet normal 0 0 1
    outer loop
      vertex 53 3 0
      vertex 53 13 0
      vertex 49.5 13 0
    endloop
  endfacet
  facet normal 0 0 1
    outer loop
      vertex 80 18 0
      vertex 80 122.9 0
      vertex 61.1 115.9 0
    endloop
  endfacet
  facet normal 0 0 1
    outer loop
      vertex 82 122.9 0
      vertex 77 122.9 0
      vertex 80 122.9 0
    endloop
  endfacet
  facet normal 0 0 1
    outer loop
      vertex 61.1 115.9 0
      vertex 61.1 103.9 0
      vertex 80 18 0
    endloop
  endfacet
  facet normal 0 0 1
    outer loop
      vertex 77 122.9 0
      vertex 61.1 115.9 0
      vertex 80 122.9 0
    endloop
  endfacet
  facet normal 0 0 1
    outer loop
      vertex 84 142.9 0
      vertex 82 122.9 0
      vertex 84 -2 0
    endloop
  endfacet
  facet normal 0 0 1
    outer loop
      vertex 82 18 0
      vertex 82 10 0
      vertex 84 -2 0
    endloop
  endfacet
  facet normal 0 0 1
    outer loop
      vertex 82 122.9 0
      vertex 82 18 0
      vertex 84 -2 0
    endloop
  endfacet
  facet normal 0 0 1
    outer loop
      vertex 77 130.9 0
      vertex 61.1 115.9 0
      vertex 77 122.9 0
    endloop
  endfacet
  facet normal 0 0 1
    outer loop
      vertex 84 142.9 0
      vertex 61.1 115.9 0
      vertex 77 130.9 0
    endloop
  endfacet
  facet normal 0 0 1
    outer loop
      vertex 84 142.9 0
      vertex 82 130.9 0
      vertex 82 122.9 0
    endloop
  endfacet
  facet normal 0 0 1
    outer loop
      vertex 77 130.9 0
      vertex 82 130.9 0
      vertex 84 142.9 0
    endloop
  endfacet
  facet normal 0 0 1
    outer loop
      vertex 72.5 3 0
      vertex 72.5 13 0
      vertex 69 13 0
    endloop
  endfacet
  facet normal 0 0 1
    outer loop
      vertex 69 13 0
      vertex 72.5 13 0
      vertex 2 122.9 0
    endloop
  endfacet
  facet normal 0 0 1
    outer loop
      vertex 2 122.9 0
      vertex 66 13 0
      vertex 69 13 0
    endloop
  endfacet
  facet normal 0 0 1
    outer loop
      vertex 2 122.9 0
      vertex 62.5 13 0
      vertex 66 13 0
    endloop
  endfacet
  facet normal 0 0 1
    outer loop
      vertex 2 122.9 0
      vertex 59.5 13 0
      vertex 62.5 13 0
    endloop
  endfacet
  facet normal 0 0 1
    outer loop
      vertex 2 122.9 0
      vertex 56 13 0
      vertex 59.5 13 0
    endloop
  endfacet
  facet normal 0 0 1
    outer loop
      vertex 2 122.9 0
      vertex 53 13 0
      vertex 56 13 0
    endloop
  endfacet
  facet normal 0 0 1
    outer loop
      vertex 2 122.9 0
      vertex 49.5 13 0
      vertex 53 13 0
    endloop
  endfacet
  facet normal 0 0 1
    outer loop
      vertex 2 122.9 0
      vertex 46.5 13 0
      vertex 49.5 13 0
    endloop
  endfacet
  facet normal 0 0 1
    outer loop
      vertex 2 122.9 0
      vertex 43 13 0
      vertex 46.5 13 0
    endloop
  endfacet
  facet normal 0 0 1
    outer loop
      vertex 2 122.9 0
      vertex 40 13 0
      vertex 43 13 0
    endloop
  endfacet
  facet normal 0 0 1
    outer loop
      vertex 2 122.9 0
      vertex 36.5 13 0
      vertex 40 13 0
    endloop
  endfacet
  facet normal 0 0 1
    outer loop
      vertex 2 122.9 0
      vertex 33.5 13 0
      vertex 36.5 13 0
    endloop
  endfacet
  facet normal 0 0 1
    outer loop
      vertex 2 122.9 0
      vertex 30 13 0
      vertex 33.5 13 0
    endloop
  endfacet
  facet normal 0 0 1
    outer loop
      vertex 2 122.9 0
      vertex 5 18 0
      vertex 30 13 0
    endloop
  endfacet
  facet normal 0 0 1
    outer loop
      vertex 2 122.9 0
      vertex 2 18 0
      vertex 5 18 0
    endloop
  endfacet
  facet normal 0 0 1
    outer loop
      vertex 72.5 13 0
      vertex 5 122.9 0
      vertex 2 122.9 0
    endloop
  endfacet
  facet normal 0 0 1
    outer loop
      vertex 20.5 3 0
      vertex 20.5 13 0
      vertex 17 13 0
    endloop
  endfacet
  facet normal 0 0 1
    outer loop
      vertex 72.5 13 0
      vertex 18 103.9 0
      vertex 5 122.9 0
    endloop
  endfacet
  facet normal 0 0 1
    outer loop
      vertex 61.1 103.9 0
      vertex 18 103.9 0
      vertex 75.5 13 0
    endloop
  endfacet
  facet normal 0 0 1
    outer loop
      vertex 27 3 0
      vertex 27 13 0
      vertex 23.5 13 0
    endloop
  endfacet
  facet normal 0 0 1
    outer loop
      vertex 77 10 0
      vertex 76 2 0
      vertex 84 -2 0
    endloop
  endfacet
  facet normal 0 0 1
    outer loop
      vertex 76 0 0
      vertex 6 0 0
      vertex 84 -2 0
    endloop
  endfacet
  facet normal 1 0 0
    outer loop
      vertex 84 -2 0
      vertex 84 -2 -2
      vertex 84 142.9 -2
    endloop
  endfacet
  facet normal 1 0 0
    outer loop
      vertex 84 142.9 0
      vertex 84 -2 0
      vertex 84 142.9 -2
    endloop
  endfacet
  facet normal 1 0 0
    outer loop
      vertex 7.5 13 -2
      vertex 7.5 13 0
      vertex 7.5 3 0
    endloop
  endfacet
  facet normal 1 0 0
    outer loop
      vertex 7.5 3 -2
      vertex 7.5 13 -2
      vertex 7.5 3 0
    endloop
  endfacet
  facet normal 0 -1 0
    outer loop
      vertex 10.5 13 -2
      vertex 10.5 13 0
      vertex 7.5 13 0
    endloop
  endfacet
  facet normal 0 -1 0
    outer loop
      vertex 7.5 13 -2
      vertex 10.5 13 -2
      vertex 7.5 13 0
    endloop
  endfacet
  facet normal -1 0 0
    outer loop
      vertex 10.5 13 0
      vertex 10.5 13 -2
      vertex 10.5 3 0
    endloop
  endfacet
  facet normal -1 0 0
    outer loop
      vertex 10.5 3 0
      vertex 10.5 13 -2
      vertex 10.5 3 -2
    endloop
  endfacet
  facet normal 0 1 0
    outer loop
      vertex 10.5 3 0
      vertex 10.5 3 -2
      vertex 7.5 3 0
    endloop
  endfacet
  facet normal 0 1 0
    outer loop
      vertex 7.5 3 0
      vertex 10.5 3 -2
      vertex 7.5 3 -2
    endloop
  endfacet
  facet normal 1 0 0
    outer loop
      vertex 14 13 -2
      vertex 14 13 0
      vertex 14 3 0
    endloop
  endfacet
  facet normal 1 0 0
    outer loop
      vertex 14 3 -2
      vertex 14 13 -2
      vertex 14 3 0
    endloop
  endfacet
  facet normal 0 -1 0
    outer loop
      vertex 17 13 -2
      vertex 17 13 0
      vertex 14 13 0
    endloop
  endfacet
  facet normal 0 -1 0
    outer loop
      vertex 14 13 -2
      vertex 17 13 -2
      vertex 14 13 0
    endloop
  endfacet
  facet normal -1 0 0
    outer loop
      vertex 17 13 0
      vertex 17 13 -2
      vertex 17 3 0
    endloop
  endfacet
  facet normal -1 0 0
    outer loop
      vertex 17 3 0
      vertex 17 13 -2
      vertex 17 3 -2
    endloop
  endfacet
  facet normal 0 1 0
    outer loop
      vertex 17 3 0
      vertex 17 3 -2
      vertex 14 3 0
    endloop
  endfacet
  facet normal 0 1 0
    outer loop
      vertex 14 3 0
      vertex 17 3 -2
      vertex 14 3 -2
    endloop
  endfacet
  facet normal 1 0 0
    outer loop
      vertex 18 115.9 -2
      vertex 18 115.9 0
      vertex 18 103.9 0
    endloop
  endfacet
  facet normal 1 0 0
    outer loop
      vertex 18 103.9 -2
      vertex 18 115.9 -2
      vertex 18 103.9 0
    endloop
  endfacet
  facet normal 0 -1 0
    outer loop
      vertex 61.1 115.9 -2
      vertex 61.1 115.9 0
      vertex 18 115.9 0
    endloop
  endfacet
  facet normal 0 -1 0
    outer loop
      vertex 18 115.9 -2
      vertex 61.1 115.9 -2
      vertex 18 115.9 0
    endloop
  endfacet
  facet normal -1 0 0
    outer loop
      vertex 61.1 115.9 0
      vertex 61.1 115.9 -2
      vertex 61.1 103.9 0
    endloop
  endfacet
  facet normal -1 0 0
    outer loop
      vertex 61.1 103.9 0
      vertex 61.1 115.9 -2
      vertex 61.1 103.9 -2
    endloop
  endfacet
  facet normal 0 1 0
    outer loop
      vertex 61.1 103.9 0
      vertex 61.1 103.9 -2
      vertex 18 103.9 0
    endloop
  endfacet
  facet normal 0 1 0
    outer loop
      vertex 18 103.9 0
      vertex 61.1 103.9 -2
      vertex 18 103.9 -2
    endloop
  endfacet
  facet normal 1 0 0
    outer loop
      vertex 20.5 13 -2
      vertex 20.5 13 0
      vertex 20.5 3 0
    endloop
  endfacet
  facet normal 1 0 0
    outer loop
      vertex 20.5 3 -2
      vertex 20.5 13 -2
      vertex 20.5 3 0
    endloop
  endfacet
  facet normal 0 -1 0
    outer loop
      vertex 23.5 13 -2
      vertex 23.5 13 0
      vertex 20.5 13 0
    endloop
  endfacet
  facet normal 0 -1 0
    outer loop
      vertex 20.5 13 -2
      vertex 23.5 13 -2
      vertex 20.5 13 0
    endloop
  endfacet
  facet normal -1 0 0
    outer loop
      vertex 23.5 13 0
      vertex 23.5 13 -2
      vertex 23.5 3 0
    endloop
  endfacet
  facet normal -1 0 0
    outer loop
      vertex 23.5 3 0
      vertex 23.5 13 -2
      vertex 23.5 3 -2
    endloop
  endfacet
  facet normal 0 1 0
    outer loop
      vertex 23.5 3 0
      vertex 23.5 3 -2
      vertex 20.5 3 0
    endloop
  endfacet
  facet normal 0 1 0
    outer loop
      vertex 20.5 3 0
      vertex 23.5 3 -2
      vertex 20.5 3 -2
    endloop
  endfacet
  facet normal 1 0 0
    outer loop
      vertex 27 13 -2
      vertex 27 13 0
      vertex 27 3 0
    endloop
  endfacet
  facet normal 1 0 0
    outer loop
      vertex 27 3 -2
      vertex 27 13 -2
      vertex 27 3 0
    endloop
  endfacet
  facet normal 0 -1 0
    outer loop
      vertex 30 13 -2
      vertex 30 13 0
      vertex 27 13 0
    endloop
  endfacet
  facet normal 0 -1 0
    outer loop
      vertex 27 13 -2
      vertex 30 13 -2
      vertex 27 13 0
    endloop
  endfacet
  facet normal -1 0 0
    outer loop
      vertex 30 13 0
      vertex 30 13 -2
      vertex 30 3 0
    endloop
  endfacet
  facet normal -1 0 0
    outer loop
      vertex 30 3 0
      vertex 30 13 -2
      vertex 30 3 -2
    endloop
  endfacet
  facet normal 0 1 0
    outer loop
      vertex 30 3 0
      vertex 30 3 -2
      vertex 27 3 0
    endloop
  endfacet
  facet normal 0 1 0
    outer loop
      vertex 27 3 0
      vertex 30 3 -2
      vertex 27 3 -2
    endloop
  endfacet
  facet normal 1 0 0
    outer loop
      vertex 33.5 13 -2
      vertex 33.5 13 0
      vertex 33.5 3 0
    endloop
  endfacet
  facet normal 1 0 0
    outer loop
      vertex 33.5 3 -2
      vertex 33.5 13 -2
      vertex 33.5 3 0
    endloop
  endfacet
  facet normal 0 -1 0
    outer loop
      vertex 36.5 13 -2
      vertex 36.5 13 0
      vertex 33.5 13 0
    endloop
  endfacet
  facet normal 0 -1 0
    outer loop
      vertex 33.5 13 -2
      vertex 36.5 13 -2
      vertex 33.5 13 0
    endloop
  endfacet
  facet normal -1 0 0
    outer loop
      vertex 36.5 13 0
      vertex 36.5 13 -2
      vertex 36.5 3 0
    endloop
  endfacet
  facet normal -1 0 0
    outer loop
      vertex 36.5 3 0
      vertex 36.5 13 -2
      vertex 36.5 3 -2
    endloop
  endfacet
  facet normal 0 1 0
    outer loop
      vertex 36.5 3 0
      vertex 36.5 3 -2
      vertex 33.5 3 0
    endloop
  endfacet
  facet normal 0 1 0
    outer loop
      vertex 33.5 3 0
      vertex 36.5 3 -2
      vertex 33.5 3 -2
    endloop
  endfacet
  facet normal 1 0 0
    outer loop
      vertex 40 13 -2
      vertex 40 13 0
      vertex 40 3 0
    endloop
  endfacet
  facet normal 1 0 0
    outer loop
      vertex 40 3 -2
      vertex 40 13 -2
      vertex 40 3 0
    endloop
  endfacet
  facet normal 0 -1 0
    outer loop
      vertex 43 13 -2
      vertex 43 13 0
      vertex 40 13 0
    endloop
  endfacet
  facet normal 0 -1 0
    outer loop
      vertex 40 13 -2
      vertex 43 13 -2
      vertex 40 13 0
    endloop
  endfacet
  facet normal -1 0 0
    outer loop
      vertex 43 13 0
      vertex 43 13 -2
      vertex 43 3 0
    endloop
  endfacet
  facet normal -1 0 0
    outer loop
      vertex 43 3 0
      vertex 43 13 -2
      vertex 43 3 -2
    endloop
  endfacet
  facet normal 0 1 0
    outer loop
      vertex 43 3 0
      vertex 43 3 -2
      vertex 40 3 0
    endloop
  endfacet
  facet normal 0 1 0
    outer loop
      vertex 40 3 0
      vertex 43 3 -2
      vertex 40 3 -2
    endloop
  endfacet
  facet normal 1 0 0
    outer loop
      vertex 46.5 13 -2
      vertex 46.5 13 0
      vertex 46.5 3 0
    endloop
  endfacet
  facet normal 1 0 0
    outer loop
      vertex 46.5 3 -2
      vertex 46.5 13 -2
      vertex 46.5 3 0
    endloop
  endfacet
  facet normal 0 -1 0
    outer loop
      vertex 49.5 13 -2
      vertex 49.5 13 0
      vertex 46.5 13 0
    endloop
  endfacet
  facet normal 0 -1 0
    outer loop
      vertex 46.5 13 -2
      vertex 49.5 13 -2
      vertex 46.5 13 0
    endloop
  endfacet
  facet normal -1 0 0
    outer loop
      vertex 49.5 13 0
      vertex 49.5 13 -2
      vertex 49.5 3 0
    endloop
  endfacet
  facet normal -1 0 0
    outer loop
      vertex 49.5 3 0
      vertex 49.5 13 -2
      vertex 49.5 3 -2
    endloop
  endfacet
  facet normal 0 1 0
    outer loop
      vertex 49.5 3 0
      vertex 49.5 3 -2
      vertex 46.5 3 0
    endloop
  endfacet
  facet normal 0 1 0
    outer loop
      vertex 46.5 3 0
      vertex 49.5 3 -2
      vertex 46.5 3 -2
    endloop
  endfacet
  facet normal 1 0 0
    outer loop
      vertex 53 13 -2
      vertex 53 13 0
      vertex 53 3 0
    endloop
  endfacet
  facet normal 1 0 0
    outer loop
      vertex 53 3 -2
      vertex 53 13 -2
      vertex 53 3 0
    endloop
  endfacet
  facet normal 0 -1 0
    outer loop
      vertex 56 13 -2
      vertex 56 13 0
      vertex 53 13 0
    endloop
  endfacet
  facet normal 0 -1 0
    outer loop
      vertex 53 13 -2
      vertex 56 13 -2
      vertex 53 13 0
    endloop
  endfacet
  facet normal -1 0 0
    outer loop
      vertex 56 13 0
      vertex 56 13 -2
      vertex 56 3 0
    endloop
  endfacet
  facet normal -1 0 0
    outer loop
      vertex 56 3 0
      vertex 56 13 -2
      vertex 56 3 -2
    endloop
  endfacet
  facet normal 0 1 0
    outer loop
      vertex 56 3 0
      vertex 56 3 -2
      vertex 53 3 0
    endloop
  endfacet
  facet normal 0 1 0
    outer loop
      vertex 53 3 0
      vertex 56 3 -2
      vertex 53 3 -2
    endloop
  endfacet
  facet normal 1 0 0
    outer loop
      vertex 59.5 13 -2
      vertex 59.5 13 0
      vertex 59.5 3 0
    endloop
  endfacet
  facet normal 1 0 0
    outer loop
      vertex 59.5 3 -2
      vertex 59.5 13 -2
      vertex 59.5 3 0
    endloop
  endfacet
  facet normal 0 -1 0
    outer loop
      vertex 62.5 13 -2
      vertex 62.5 13 0
      vertex 59.5 13 0
    endloop
  endfacet
  facet normal 0 -1 0
    outer loop
      vertex 59.5 13 -2
      vertex 62.5 13 -2
      vertex 59.5 13 0
    endloop
  endfacet
  facet normal -1 0 0
    outer loop
      vertex 62.5 13 0
      vertex 62.5 13 -2
      vertex 62.5 3 0
    endloop
  endfacet
  facet normal -1 0 0
    outer loop
      vertex 62.5 3 0
      vertex 62.5 13 -2
      vertex 62.5 3 -2
    endloop
  endfacet
  facet normal 0 1 0
    outer loop
      vertex 62.5 3 0
      vertex 62.5 3 -2
      vertex 59.5 3 0
    endloop
  endfacet
  facet normal 0 1 0
    outer loop
      vertex 59.5 3 0
      vertex 62.5 3 -2
      vertex 59.5 3 -2
    endloop
  endfacet
  facet normal 1 0 0
    outer loop
      vertex 66 13 -2
      vertex 66 13 0
      vertex 66 3 0
    endloop
  endfacet
  facet normal 1 0 0
    outer loop
      vertex 66 3 -2
      vertex 66 13 -2
      vertex 66 3 0
    endloop
  endfacet
  facet normal 0 -1 0
    outer loop
      vertex 69 13 -2
      vertex 69 13 0
      vertex 66 13 0
    endloop
  endfacet
  facet normal 0 -1 0
    outer loop
      vertex 66 13 -2
      vertex 69 13 -2
      vertex 66 13 0
    endloop
  endfacet
  facet normal -1 0 0
    outer loop
      vertex 69 13 0
      vertex 69 13 -2
      vertex 69 3 0
    endloop
  endfacet
  facet normal -1 0 0
    outer loop
      vertex 69 3 0
      vertex 69 13 -2
      vertex 69 3 -2
    endloop
  endfacet
  facet normal 0 1 0
    outer loop
      vertex 69 3 0
      vertex 69 3 -2
      vertex 66 3 0
    endloop
  endfacet
  facet normal 0 1 0
    outer loop
      vertex 66 3 0
      vertex 69 3 -2
      vertex 66 3 -2
    endloop
  endfacet
  facet normal 1 0 0
    outer loop
      vertex 72.5 13 -2
      vertex 72.5 13 0
      vertex 72.5 3 0
    endloop
  endfacet
  facet normal 1 0 0
    outer loop
      vertex 72.5 3 -2
      vertex 72.5 13 -2
      vertex 72.5 3 0
    endloop
  endfacet
  facet normal 0 -1 0
    outer loop
      vertex 75.5 13 -2
      vertex 75.5 13 0
      vertex 72.5 13 0
    endloop
  endfacet
  facet normal 0 -1 0
    outer loop
      vertex 72.5 13 -2
      vertex 75.5 13 -2
      vertex 72.5 13 0
    endloop
  endfacet
  facet normal -1 0 0
    outer loop
      vertex 75.5 13 0
      vertex 75.5 13 -2
      vertex 75.5 3 0
    endloop
  endfacet
  facet normal -1 0 0
    outer loop
      vertex 75.5 3 0
      vertex 75.5 13 -2
      vertex 75.5 3 -2
    endloop
  endfacet
  facet normal 0 1 0
    outer loop
      vertex 75.5 3 0
      vertex 75.5 3 -2
      vertex 72.5 3 0
    endloop
  endfacet
  facet normal 0 1 0
    outer loop
      vertex 72.5 3 0
      vertex 75.5 3 -2
      vertex 72.5 3 -2
    endloop
  endfacet
  facet normal -1 0 0
    outer loop
      vertex 0 10 0
      vertex 0 10 5.38579
      vertex 0 122.9 0
    endloop
  endfacet
  facet normal -1 0 0
    outer loop
      vertex 0 122.9 0
      vertex 0 10 5.38579
      vertex 0 18 5.38579
    endloop
  endfacet
  facet normal -1 0 0
    outer loop
      vertex 0 122.9 0
      vertex 0 18 5.38579
      vertex 0 18 6
    endloop
  endfacet
  facet normal -1 0 0
    outer loop
      vertex 0 122.9 0
      vertex 0 18 6
      vertex 0 122.9 6
    endloop
  endfacet
  facet normal 0 -1 0
    outer loop
      vertex 1.11022e-16 10 8.21421
      vertex -1.41421 10 6.8
      vertex -1.11022e-16 10 5.38579
    endloop
  endfacet
  facet normal 0 -1 0
    outer loop
      vertex 0 10 0
      vertex 1.11022e-16 10 8.21421
      vertex 0 10 5.38579
    endloop
  endfacet
  facet normal 0 -1 0
    outer loop
      vertex 0 10 5.38579
      vertex 1.11022e-16 10 8.21421
      vertex -1.11022e-16 10 5.38579
    endloop
  endfacet
  facet normal 0 -1 0
    outer loop
      vertex 5 10 0
      vertex 1.11022e-16 10 8.21421
      vertex 0 10 0
    endloop
  endfacet
  facet normal 0 -1 0
    outer loop
      vertex 0.000213562 10 8.214
      vertex 1.11022e-16 10 8.21421
      vertex 5 10 0
    endloop
  endfacet
  facet normal 0 -1 0
    outer loop
      vertex 5 10 8.214
      vertex 0.000213562 10 8.214
      vertex 5 10 0
    endloop
  endfacet
  facet normal 1 0 0
    outer loop
      vertex 5 10 8.214
      vertex 5 10 0
      vertex 5 18 0
    endloop
  endfacet
  facet normal 1 0 0
    outer loop
      vertex 5 18 8.214
      vertex 5 10 8.214
      vertex 5 18 0
    endloop
  endfacet
  facet normal 0 1 0
    outer loop
      vertex 2 18 6
      vertex 5 18 8.214
      vertex 5 18 0
    endloop
  endfacet
  facet normal 0 1 0
    outer loop
      vertex 0 18 6
      vertex 0.000213562 18 8.214
      vertex 2 18 6
    endloop
  endfacet
  facet normal 0 1 0
    outer loop
      vertex 0.000213562 18 8.214
      vertex 5 18 8.214
      vertex 2 18 6
    endloop
  endfacet
  facet normal 0 1 0
    outer loop
      vertex 0 18 6
      vertex 1.11022e-16 18 8.21421
      vertex 0.000213562 18 8.214
    endloop
  endfacet
  facet normal 0 1 0
    outer loop
      vertex -1.11022e-16 18 5.38579
      vertex 1.11022e-16 18 8.21421
      vertex 0 18 6
    endloop
  endfacet
  facet normal 0 1 0
    outer loop
      vertex 0 18 5.38579
      vertex -1.11022e-16 18 5.38579
      vertex 0 18 6
    endloop
  endfacet
  facet normal 0 1 0
    outer loop
      vertex -1.11022e-16 18 5.38579
      vertex -1.41421 18 6.8
      vertex 1.11022e-16 18 8.21421
    endloop
  endfacet
  facet normal 0 1 0
    outer loop
      vertex 2 18 6
      vertex 5 18 0
      vertex 2 18 0
    endloop
  endfacet
  facet normal 1 0 0
    outer loop
      vertex 2 18 6
      vertex 2 18 0
      vertex 2 122.9 0
    endloop
  endfacet
  facet normal 1 0 0
    outer loop
      vertex 2 122.9 6
      vertex 2 18 6
      vertex 2 122.9 0
    endloop
  endfacet
  facet normal 0 1 0
    outer loop
      vertex 0 122.9 0
      vertex 0 122.9 6
      vertex 2 122.9 0
    endloop
  endfacet
  facet normal 0 1 0
    outer loop
      vertex 2 122.9 0
      vertex 0 122.9 6
      vertex 2 122.9 6
    endloop
  endfacet
  facet normal -1 0 0
    outer loop
      vertex 0 122.9 0
      vertex 0 122.9 5.38579
      vertex 0 130.9 0
    endloop
  endfacet
  facet normal -1 0 0
    outer loop
      vertex 0 130.9 0
      vertex 0 122.9 5.38579
      vertex 0 130.9 5.38579
    endloop
  endfacet
  facet normal 0 -1 0
    outer loop
      vertex 1.11022e-16 122.9 8.21421
      vertex -1.41421 122.9 6.8
      vertex -1.11022e-16 122.9 5.38579
    endloop
  endfacet
  facet normal 0 -1 0
    outer loop
      vertex 0 122.9 0
      vertex 1.11022e-16 122.9 8.21421
      vertex 0 122.9 5.38579
    endloop
  endfacet
  facet normal 0 -1 0
    outer loop
      vertex 0 122.9 5.38579
      vertex 1.11022e-16 122.9 8.21421
      vertex -1.11022e-16 122.9 5.38579
    endloop
  endfacet
  facet normal 0 -1 0
    outer loop
      vertex 5 122.9 0
      vertex 1.11022e-16 122.9 8.21421
      vertex 0 122.9 0
    endloop
  endfacet
  facet normal 0 -1 0
    outer loop
      vertex 0.000213562 122.9 8.214
      vertex 1.11022e-16 122.9 8.21421
      vertex 5 122.9 0
    endloop
  endfacet
  facet normal 0 -1 0
    outer loop
      vertex 5 122.9 8.214
      vertex 0.000213562 122.9 8.214
      vertex 5 122.9 0
    endloop
  endfacet
  facet normal 1 0 0
    outer loop
      vertex 5 122.9 8.214
      vertex 5 122.9 0
      vertex 5 130.9 0
    endloop
  endfacet
  facet normal 1 0 0
    outer loop
      vertex 5 130.9 8.214
      vertex 5 122.9 8.214
      vertex 5 130.9 0
    endloop
  endfacet
  facet normal 0 1 0
    outer loop
      vertex -1.41421 130.9 6.8
      vertex 1.11022e-16 130.9 8.21421
      vertex -1.11022e-16 130.9 5.38579
    endloop
  endfacet
  facet normal 0 1 0
    outer loop
      vertex -1.11022e-16 130.9 5.38579
      vertex 1.11022e-16 130.9 8.21421
      vertex 0.000213562 130.9 8.214
    endloop
  endfacet
  facet normal 0 1 0
    outer loop
      vertex 0 130.9 5.38579
      vertex 0.000213562 130.9 8.214
      vertex 5 130.9 8.214
    endloop
  endfacet
  facet normal 0 1 0
    outer loop
      vertex -1.11022e-16 130.9 5.38579
      vertex 0.000213562 130.9 8.214
      vertex 0 130.9 5.38579
    endloop
  endfacet
  facet normal 0 1 0
    outer loop
      vertex 0 130.9 5.38579
      vertex 5 130.9 8.214
      vertex 5 130.9 0
    endloop
  endfacet
  facet normal 0 1 0
    outer loop
      vertex 0 130.9 5.38579
      vertex 5 130.9 0
      vertex 0 130.9 0
    endloop
  endfacet
  facet normal -1 0 0
    outer loop
      vertex 6 0 0
      vertex 6 0 6
      vertex 6 2 0
    endloop
  endfacet
  facet normal -1 0 0
    outer loop
      vertex 6 2 0
      vertex 6 0 6
      vertex 6 2 6
    endloop
  endfacet
  facet normal 0 -1 0
    outer loop
      vertex 6 0 6
      vertex 6 0 0
      vertex 76 0 0
    endloop
  endfacet
  facet normal 0 -1 0
    outer loop
      vertex 76 0 6
      vertex 6 0 6
      vertex 76 0 0
    endloop
  endfacet
  facet normal 1 0 0
    outer loop
      vertex 76 0 6
      vertex 76 0 0
      vertex 76 2 0
    endloop
  endfacet
  facet normal 1 0 0
    outer loop
      vertex 76 2 6
      vertex 76 0 6
      vertex 76 2 0
    endloop
  endfacet
  facet normal 0 1 0
    outer loop
      vertex 6 2 0
      vertex 6 2 6
      vertex 76 2 0
    endloop
  endfacet
  facet normal 0 1 0
    outer loop
      vertex 76 2 0
      vertex 6 2 6
      vertex 76 2 6
    endloop
  endfacet
  facet normal -1 1.22465e-16 0
    outer loop
      vertex 77 10 0
      vertex 77 10 8.214
      vertex 77 18 0
    endloop
  endfacet
  facet normal -1 1.22465e-16 0
    outer loop
      vertex 77 18 0
      vertex 77 10 8.214
      vertex 77 18 8.214
    endloop
  endfacet
  facet normal -1.22465e-16 -1 0
    outer loop
      vertex 77 10 8.214
      vertex 77 10 0
      vertex 82 10 0
    endloop
  endfacet
  facet normal -1.22465e-16 -1 0
    outer loop
      vertex 83.4142 10 6.8
      vertex 77 10 8.214
      vertex 82 10 5.38579
    endloop
  endfacet
  facet normal -1.22465e-16 -1 0
    outer loop
      vertex 82 10 5.38579
      vertex 77 10 8.214
      vertex 82 10 0
    endloop
  endfacet
  facet normal -1.22465e-16 -1 0
    outer loop
      vertex 81.9998 10 8.214
      vertex 77 10 8.214
      vertex 83.4142 10 6.8
    endloop
  endfacet
  facet normal -1.22465e-16 -1 0
    outer loop
      vertex 82 10 8.21421
      vertex 81.9998 10 8.214
      vertex 83.4142 10 6.8
    endloop
  endfacet
  facet normal 1 -1.22465e-16 0
    outer loop
      vertex 82 10 5.38579
      vertex 82 10 0
      vertex 82 18 0
    endloop
  endfacet
  facet normal 1 -1.22465e-16 0
    outer loop
      vertex 82 18 5.38579
      vertex 82 10 5.38579
      vertex 82 18 0
    endloop
  endfacet
  facet normal 1 0 0
    outer loop
      vertex 82 18 5.38579
      vertex 82 18 0
      vertex 82 122.9 0
    endloop
  endfacet
  facet normal 1 0 0
    outer loop
      vertex 82 18 6
      vertex 82 18 5.38579
      vertex 82 122.9 6
    endloop
  endfacet
  facet normal 1 0 0
    outer loop
      vertex 82 122.9 6
      vertex 82 18 5.38579
      vertex 82 122.9 0
    endloop
  endfacet
  facet normal 0 1 0
    outer loop
      vertex 80 122.9 0
      vertex 80 122.9 6
      vertex 82 122.9 0
    endloop
  endfacet
  facet normal 0 1 0
    outer loop
      vertex 82 122.9 0
      vertex 80 122.9 6
      vertex 82 122.9 6
    endloop
  endfacet
  facet normal -1 0 0
    outer loop
      vertex 80 18 0
      vertex 80 18 6
      vertex 80 122.9 0
    endloop
  endfacet
  facet normal -1 0 0
    outer loop
      vertex 80 122.9 0
      vertex 80 18 6
      vertex 80 122.9 6
    endloop
  endfacet
  facet normal 1.22465e-16 1 0
    outer loop
      vertex 77 18 0
      vertex 77 18 8.214
      vertex 80 18 0
    endloop
  endfacet
  facet normal 1.22465e-16 1 0
    outer loop
      vertex 80 18 6
      vertex 77 18 8.214
      vertex 81.9998 18 8.214
    endloop
  endfacet
  facet normal 1.22465e-16 1 0
    outer loop
      vertex 82 18 5.38579
      vertex 82 18 8.21421
      vertex 83.4142 18 6.8
    endloop
  endfacet
  facet normal 1.22465e-16 1 0
    outer loop
      vertex 82 18 6
      vertex 82 18 8.21421
      vertex 82 18 5.38579
    endloop
  endfacet
  facet normal 1.22465e-16 1 0
    outer loop
      vertex 80 18 0
      vertex 77 18 8.214
      vertex 80 18 6
    endloop
  endfacet
  facet normal 1.22465e-16 1 0
    outer loop
      vertex 80 18 6
      vertex 81.9998 18 8.214
      vertex 82 18 8.21421
    endloop
  endfacet
  facet normal 1.22465e-16 1 0
    outer loop
      vertex 80 18 6
      vertex 82 18 8.21421
      vertex 82 18 6
    endloop
  endfacet
  facet normal -1 1.22465e-16 0
    outer loop
      vertex 77 122.9 0
      vertex 77 122.9 8.214
      vertex 77 130.9 0
    endloop
  endfacet
  facet normal -1 1.22465e-16 0
    outer loop
      vertex 77 130.9 0
      vertex 77 122.9 8.214
      vertex 77 130.9 8.214
    endloop
  endfacet
  facet normal -1.22465e-16 -1 0
    outer loop
      vertex 77 122.9 8.214
      vertex 77 122.9 0
      vertex 82 122.9 0
    endloop
  endfacet
  facet normal -1.22465e-16 -1 0
    outer loop
      vertex 83.4142 122.9 6.8
      vertex 77 122.9 8.214
      vertex 82 122.9 5.38579
    endloop
  endfacet
  facet normal -1.22465e-16 -1 0
    outer loop
      vertex 82 122.9 5.38579
      vertex 77 122.9 8.214
      vertex 82 122.9 0
    endloop
  endfacet
  facet normal -1.22465e-16 -1 0
    outer loop
      vertex 81.9998 122.9 8.214
      vertex 77 122.9 8.214
      vertex 83.4142 122.9 6.8
    endloop
  endfacet
  facet normal -1.22465e-16 -1 0
    outer loop
      vertex 82 122.9 8.21421
      vertex 81.9998 122.9 8.214
      vertex 83.4142 122.9 6.8
    endloop
  endfacet
  facet normal 1 -1.22465e-16 0
    outer loop
      vertex 82 122.9 5.38579
      vertex 82 122.9 0
      vertex 82 130.9 0
    endloop
  endfacet
  facet normal 1 -1.22465e-16 0
    outer loop
      vertex 82 130.9 5.38579
      vertex 82 122.9 5.38579
      vertex 82 130.9 0
    endloop
  endfacet
  facet normal 1.22465e-16 1 0
    outer loop
      vertex 77 130.9 0
      vertex 77 130.9 8.214
      vertex 82 130.9 0
    endloop
  endfacet
  facet normal 1.22465e-16 1 0
    outer loop
      vertex 82 130.9 0
      vertex 77 130.9 8.214
      vertex 81.9998 130.9 8.214
    endloop
  endfacet
  facet normal 1.22465e-16 1 0
    outer loop
      vertex 82 130.9 0
      vertex 81.9998 130.9 8.214
      vertex 82 130.9 8.21421
    endloop
  endfacet
  facet normal 1.22465e-16 1 0
    outer loop
      vertex 82 130.9 5.38579
      vertex 82 130.9 8.21421
      vertex 83.4142 130.9 6.8
    endloop
  endfacet
  facet normal 1.22465e-16 1 0
    outer loop
      vertex 82 130.9 0
      vertex 82 130.9 8.21421
      vertex 82 130.9 5.38579
    endloop
  endfacet
  facet normal 0 0 1
    outer loop
      vertex 0 122.9 6
      vertex 0 18 6
      vertex 2 18 6
    endloop
  endfacet
  facet normal 0 0 1
    outer loop
      vertex 2 122.9 6
      vertex 0 122.9 6
      vertex 2 18 6
    endloop
  endfacet
  facet normal 0.707107 0 -0.707107
    outer loop
      vertex -1.11022e-16 10 5.38579
      vertex -1.11022e-16 18 5.38579
      vertex 0 10 5.38579
    endloop
  endfacet
  facet normal 0.707107 0 -0.707107
    outer loop
      vertex 0 10 5.38579
      vertex -1.11022e-16 18 5.38579
      vertex 0 18 5.38579
    endloop
  endfacet
  facet normal -0.707107 0 0.707107
    outer loop
      vertex -1.41421 18 6.8
      vertex -1.41421 10 6.8
      vertex 1.11022e-16 10 8.21421
    endloop
  endfacet
  facet normal -0.707107 0 0.707107
    outer loop
      vertex 1.11022e-16 18 8.21421
      vertex -1.41421 18 6.8
      vertex 1.11022e-16 10 8.21421
    endloop
  endfacet
  facet normal 0.707107 0 0.707107
    outer loop
      vertex 1.11022e-16 18 8.21421
      vertex 1.11022e-16 10 8.21421
      vertex 0.000213562 10 8.214
    endloop
  endfacet
  facet normal 0.707107 0 0.707107
    outer loop
      vertex 0.000213562 18 8.214
      vertex 1.11022e-16 18 8.21421
      vertex 0.000213562 10 8.214
    endloop
  endfacet
  facet normal 0 0 1
    outer loop
      vertex 0.000213562 18 8.214
      vertex 0.000213562 10 8.214
      vertex 5 10 8.214
    endloop
  endfacet
  facet normal 0 0 1
    outer loop
      vertex 5 18 8.214
      vertex 0.000213562 18 8.214
      vertex 5 10 8.214
    endloop
  endfacet
  facet normal -0.707107 0 -0.707107
    outer loop
      vertex -1.41421 10 6.8
      vertex -1.41421 18 6.8
      vertex -1.11022e-16 10 5.38579
    endloop
  endfacet
  facet normal -0.707107 0 -0.707107
    outer loop
      vertex -1.11022e-16 10 5.38579
      vertex -1.41421 18 6.8
      vertex -1.11022e-16 18 5.38579
    endloop
  endfacet
  facet normal 0.707107 0 -0.707107
    outer loop
      vertex -1.11022e-16 122.9 5.38579
      vertex -1.11022e-16 130.9 5.38579
      vertex 0 122.9 5.38579
    endloop
  endfacet
  facet normal 0.707107 0 -0.707107
    outer loop
      vertex 0 122.9 5.38579
      vertex -1.11022e-16 130.9 5.38579
      vertex 0 130.9 5.38579
    endloop
  endfacet
  facet normal -0.707107 0 0.707107
    outer loop
      vertex -1.41421 130.9 6.8
      vertex -1.41421 122.9 6.8
      vertex 1.11022e-16 122.9 8.21421
    endloop
  endfacet
  facet normal -0.707107 0 0.707107
    outer loop
      vertex 1.11022e-16 130.9 8.21421
      vertex -1.41421 130.9 6.8
      vertex 1.11022e-16 122.9 8.21421
    endloop
  endfacet
  facet normal 0.707107 0 0.707107
    outer loop
      vertex 1.11022e-16 130.9 8.21421
      vertex 1.11022e-16 122.9 8.21421
      vertex 0.000213562 122.9 8.214
    endloop
  endfacet
  facet normal 0.707107 0 0.707107
    outer loop
      vertex 0.000213562 130.9 8.214
      vertex 1.11022e-16 130.9 8.21421
      vertex 0.000213562 122.9 8.214
    endloop
  endfacet
  facet normal 0 0 1
    outer loop
      vertex 0.000213562 130.9 8.214
      vertex 0.000213562 122.9 8.214
      vertex 5 122.9 8.214
    endloop
  endfacet
  facet normal 0 0 1
    outer loop
      vertex 5 130.9 8.214
      vertex 0.000213562 130.9 8.214
      vertex 5 122.9 8.214
    endloop
  endfacet
  facet normal -0.707107 0 -0.707107
    outer loop
      vertex -1.41421 122.9 6.8
      vertex -1.41421 130.9 6.8
      vertex -1.11022e-16 122.9 5.38579
    endloop
  endfacet
  facet normal -0.707107 0 -0.707107
    outer loop
      vertex -1.11022e-16 122.9 5.38579
      vertex -1.41421 130.9 6.8
      vertex -1.11022e-16 130.9 5.38579
    endloop
  endfacet
  facet normal 0 0 1
    outer loop
      vertex 6 2 6
      vertex 6 0 6
      vertex 76 0 6
    endloop
  endfacet
  facet normal 0 0 1
    outer loop
      vertex 76 2 6
      vertex 6 2 6
      vertex 76 0 6
    endloop
  endfacet
  facet normal 0 0 1
    outer loop
      vertex 77 18 8.214
      vertex 77 10 8.214
      vertex 81.9998 10 8.214
    endloop
  endfacet
  facet normal 0 0 1
    outer loop
      vertex 81.9998 18 8.214
      vertex 77 18 8.214
      vertex 81.9998 10 8.214
    endloop
  endfacet
  facet normal -0.707107 8.65956e-17 0.707107
    outer loop
      vertex 81.9998 10 8.214
      vertex 82 10 8.21421
      vertex 81.9998 18 8.214
    endloop
  endfacet
  facet normal -0.707107 8.65956e-17 0.707107
    outer loop
      vertex 81.9998 18 8.214
      vertex 82 10 8.21421
      vertex 82 18 8.21421
    endloop
  endfacet
  facet normal 0.707107 -8.65956e-17 0.707107
    outer loop
      vertex 82 18 8.21421
      vertex 82 10 8.21421
      vertex 83.4142 10 6.8
    endloop
  endfacet
  facet normal 0.707107 -8.65956e-17 0.707107
    outer loop
      vertex 83.4142 18 6.8
      vertex 82 18 8.21421
      vertex 83.4142 10 6.8
    endloop
  endfacet
  facet normal 0.707107 -8.65956e-17 -0.707107
    outer loop
      vertex 83.4142 10 6.8
      vertex 82 10 5.38579
      vertex 82 18 5.38579
    endloop
  endfacet
  facet normal 0.707107 -8.65956e-17 -0.707107
    outer loop
      vertex 83.4142 18 6.8
      vertex 83.4142 10 6.8
      vertex 82 18 5.38579
    endloop
  endfacet
  facet normal 0 0 1
    outer loop
      vertex 80 122.9 6
      vertex 80 18 6
      vertex 82 18 6
    endloop
  endfacet
  facet normal 0 0 1
    outer loop
      vertex 82 122.9 6
      vertex 80 122.9 6
      vertex 82 18 6
    endloop
  endfacet
  facet normal 0 0 1
    outer loop
      vertex 77 130.9 8.214
      vertex 77 122.9 8.214
      vertex 81.9998 122.9 8.214
    endloop
  endfacet
  facet normal 0 0 1
    outer loop
      vertex 81.9998 130.9 8.214
      vertex 77 130.9 8.214
      vertex 81.9998 122.9 8.214
    endloop
  endfacet
  facet normal -0.707107 8.65956e-17 0.707107
    outer loop
      vertex 81.9998 122.9 8.214
      vertex 82 122.9 8.21421
      vertex 81.9998 130.9 8.214
    endloop
  endfacet
  facet normal -0.707107 8.65956e-17 0.707107
    outer loop
      vertex 81.9998 130.9 8.214
      vertex 82 122.9 8.21421
      vertex 82 130.9 8.21421
    endloop
  endfacet
  facet normal 0.707107 -8.65956e-17 0.707107
    outer loop
      vertex 82 130.9 8.21421
      vertex 82 122.9 8.21421
      vertex 83.4142 122.9 6.8
    endloop
  endfacet
  facet normal 0.707107 -8.65956e-17 0.707107
    outer loop
      vertex 83.4142 130.9 6.8
      vertex 82 130.9 8.21421
      vertex 83.4142 122.9 6.8
    endloop
  endfacet
  facet normal 0.707107 -8.65956e-17 -0.707107
    outer loop
      vertex 83.4142 122.9 6.8
      vertex 82 122.9 5.38579
      vertex 82 130.9 5.38579
    endloop
  endfacet
  facet normal 0.707107 -8.65956e-17 -0.707107
    outer loop
      vertex 83.4142 130.9 6.8
      vertex 83.4142 122.9 6.8
      vertex 82 130.9 5.38579
    endloop
  endfacet
endsolid OpenSCAD_Model
